<?xml version="1.0" encoding="UTF-8" standalone="no"?>
<svg
   xml:space="preserve"
   width="375.75293"
   height="358.42001"
   viewBox="0 0 99.417709 94.832"
   version="1.1"
   id="svg7"
   sodipodi:docname="rvg-ventures-logo.svg"
   inkscape:version="1.4.2 (f4327f4, 2025-05-13)"
   xmlns:inkscape="http://www.inkscape.org/namespaces/inkscape"
   xmlns:sodipodi="http://sodipodi.sourceforge.net/DTD/sodipodi-0.dtd"
   xmlns="http://www.w3.org/2000/svg"
   xmlns:svg="http://www.w3.org/2000/svg"><defs
     id="defs7" /><sodipodi:namedview
     id="namedview7"
     pagecolor="#505050"
     bordercolor="#eeeeee"
     borderopacity="1"
     inkscape:showpageshadow="0"
     inkscape:pageopacity="0"
     inkscape:pagecheckerboard="0"
     inkscape:deskcolor="#505050"
     inkscape:zoom="1.1927347"
     inkscape:cx="150.49449"
     inkscape:cy="224.27452"
     inkscape:window-width="1920"
     inkscape:window-height="1057"
     inkscape:window-x="-8"
     inkscape:window-y="-8"
     inkscape:window-maximized="1"
     inkscape:current-layer="svg7"><inkscape:page
       x="9.8220788e-08"
       y="0"
       width="99.417709"
       height="94.832001"
       id="page1"
       margin="0 0 0 0"
       bleed="0" /></sodipodi:namedview><g
     id="g7"
     transform="matrix(0.92518116,0,0,0.92518116,-18.857879,13.017287)"><g
       transform="matrix(1.81643,0,0,1.81643,-71.328,-110.828)"
       id="g6"><rect
         width="22.135"
         height="3.849"
         x="-6.9039998"
         y="116.887"
         ry="1.572"
         style="fill:#eead5f;fill-opacity:1;stroke-width:0.412268"
         transform="matrix(0.85433,-0.51973,0.57309,0.8195,0,0)"
         id="rect1" /><rect
         width="22.135"
         height="3.849"
         x="-138.28799"
         y="33.563"
         ry="1.572"
         style="fill:#eead5f;fill-opacity:1;stroke-width:0.412268"
         transform="matrix(-0.85433,-0.51973,-0.57309,0.8195,0,0)"
         id="rect2" /><rect
         width="3.7650001"
         height="26.479"
         x="61.366001"
         y="75.473999"
         ry="1.395"
         style="fill:#7abbb7;fill-opacity:1;stroke-width:0.264583"
         id="rect3" /><rect
         width="30.950001"
         height="3.9349999"
         x="-2.8099999"
         y="97.363998"
         ry="1.9680001"
         style="fill:#7ca953;fill-opacity:1;stroke-width:0.298124"
         transform="matrix(0.7746,-0.63245,0.5985,0.80113,0,0)"
         id="rect4" /><rect
         width="30.950001"
         height="3.9349999"
         x="-131.21899"
         y="-4.0100002"
         ry="1.9680001"
         style="fill:#7ca953;fill-opacity:1;stroke-width:0.298124"
         transform="matrix(-0.7746,-0.63245,-0.5985,0.80113,0,0)"
         id="rect5" /><path
         d="m 94.866,81.848 v 19.158 c 0,0.525 0.622,0.947 1.394,0.947 h 0.976 c 0.773,0 1.395,-0.422 1.395,-0.947 V 84.931 Z"
         style="fill:#7abbb7;fill-opacity:1;stroke-width:0.217955"
         id="path5" /><path
         d="m 76.404,74.517 3.184,-0.009 -0.013,3.878 H 75.85 l -0.013,-3.302 a 0.565,0.565 0 0 1 0.567,-0.567 z m -0.614,8.178 -0.01,-3.185 3.878,0.014 v 3.725 l -3.302,0.013 a 0.565,0.565 0 0 1 -0.567,-0.567 z m 8.39,-8.178 -3.184,-0.009 0.013,3.878 h 3.725 l 0.013,-3.302 A 0.565,0.565 0 0 0 84.18,74.517 Z m 0.615,8.178 0.008,-3.185 -3.877,0.014 v 3.725 l 3.302,0.013 a 0.565,0.565 0 0 0 0.567,-0.567 z"
         style="fill:#16201f;fill-opacity:1;stroke-width:0.241575"
         id="path6" /></g></g></svg>
