<?xml version="1.0" encoding="UTF-8" standalone="no"?>
<!-- Created with Inkscape (http://www.inkscape.org/) -->

<svg
   width="163.479mm"
   height="82.099449mm"
   viewBox="0 0 163.479 82.099449"
   version="1.1"
   id="svg1"
   xml:space="preserve"
   inkscape:version="1.4.2 (f4327f4, 2025-05-13)"
   sodipodi:docname="logo-blanco.svg"
   xmlns:inkscape="http://www.inkscape.org/namespaces/inkscape"
   xmlns:sodipodi="http://sodipodi.sourceforge.net/DTD/sodipodi-0.dtd"
   xmlns="http://www.w3.org/2000/svg"
   xmlns:svg="http://www.w3.org/2000/svg"><sodipodi:namedview
     id="namedview1"
     pagecolor="#505050"
     bordercolor="#eeeeee"
     borderopacity="1"
     inkscape:showpageshadow="0"
     inkscape:pageopacity="0"
     inkscape:pagecheckerboard="0"
     inkscape:deskcolor="#505050"
     inkscape:document-units="mm"
     inkscape:zoom="0.53858859"
     inkscape:cx="390.83635"
     inkscape:cy="62.19961"
     inkscape:window-width="1920"
     inkscape:window-height="1057"
     inkscape:window-x="-8"
     inkscape:window-y="-8"
     inkscape:window-maximized="1"
     inkscape:current-layer="layer1"><inkscape:page
       x="0"
       y="0"
       width="163.479"
       height="82.099449"
       id="page3"
       margin="0"
       bleed="0" /></sodipodi:namedview><defs
     id="defs1" /><g
     inkscape:label="Capa 1"
     inkscape:groupmode="layer"
     id="layer1"
     transform="translate(-22.613112,-357.41756)"><path
       id="path1-5"
       style="fill:#ffffff"
       d="m 105.59418,357.41757 c -0.0671,0 -24.75391,20.60027 -27.458781,22.91333 -3e-4,2.6e-4 -0.0013,0.001 -0.0016,0.002 -0.06326,0.0751 0.681354,0.79187 1.665532,1.60197 l 1.803507,1.48467 v 1.77095 1.77147 l -2.176094,-0.45476 c -1.196943,-0.25005 -4.505463,-0.92152 -7.352006,-1.49241 -5.05181,-1.01316 -5.183609,-1.03054 -5.526795,-0.73019 -0.193374,0.16924 -2.280151,2.41461 -4.636926,4.98988 -2.356775,2.57526 -6.743898,7.34421 -9.749276,10.5978 -3.005378,3.2536 -5.486232,5.97014 -5.512842,6.03684 -0.05338,0.1338 2.056206,0.33848 3.48816,0.33848 h 0.912605 v 6.85643 c 0,3.77092 -0.05723,6.85808 -0.12764,6.86108 -0.07041,0.003 -2.048651,0.33425 -4.395598,0.73691 l -4.266923,0.73225 63.410077,5.2e-4 c 61.92624,7.6e-4 63.37064,-0.006 61.70372,-0.30489 -0.93878,-0.16811 -2.95534,-0.51139 -4.48086,-0.76326 l -2.77347,-0.45786 v -6.81405 -6.81406 l 2.00556,-0.108 c 1.10306,-0.0594 2.17456,-0.12289 2.38125,-0.14159 0.31919,-0.0289 0.11722,-0.31146 -1.34204,-1.87379 -0.94496,-1.01171 -5.2547,-5.7149 -9.57668,-10.45156 -4.32198,-4.73665 -8.09984,-8.85919 -8.39535,-9.1612 l -0.53692,-0.5488 -4.60023,0.91519 c -4.204,0.83642 -8.97994,1.81034 -9.93376,2.02571 -0.38004,0.0858 -0.38396,0.0683 -0.38396,-1.73219 v -1.81901 l 1.78646,-1.45262 1.78697,-1.45315 -3.45096,-2.88871 c -3.74792,-3.13708 -14.32897,-11.97101 -20.38118,-17.01601 -2.08293,-1.73629 -3.8307,-3.15692 -3.884,-3.15692 z m 0.0863,6.21875 c 0.0885,0.0289 4.46198,3.61569 9.71879,7.97057 l 9.55755,7.91786 -10e-4,5.8782 -5.2e-4,5.87767 -6.1867,6.29988 c -3.40241,3.46482 -8.22167,8.37074 -10.70943,10.90217 l -4.52323,4.60179 -3.15795,0.006 -3.157422,0.006 -5.413622,-5.47306 -5.41414,-5.47305 0.03721,-11.36003 0.03721,-11.36054 9.526029,-7.92303 c 5.239445,-4.35766 9.598765,-7.89922 9.687265,-7.87032 z m -6.069912,16.52405 0.0295,2.55023 c 0.0163,1.40254 0.0359,2.60629 0.0429,2.67529 0.008,0.069 1.165072,0.12558 2.572962,0.12558 h 2.56057 l 0.0129,-1.21233 c 0.007,-0.66681 0.0266,-1.87063 0.0429,-2.67529 l 0.0295,-1.46348 h -2.64583 z m 6.741702,0 v 2.67529 2.67581 h 2.64584 2.64583 v -2.67581 -2.67529 h -2.64583 z m -4.10724,6.68848 -2.656162,5.2e-4 0.0315,2.63343 c 0.0174,1.44859 0.0412,2.65454 0.0532,2.67994 v 5.2e-4 c 0.012,0.0254 1.176942,0.0254 2.588462,0 l 2.56625,-0.0465 0.0367,-2.63395 0.0367,-2.63395 z m 4.10724,5.2e-4 v 2.67529 2.6758 h 2.64584 2.64583 v -2.6758 -2.67529 h -2.64583 z m 36.59622,1.96215 c 0.0669,-0.0354 2.65325,2.75983 10.64224,11.49956 l 2.59881,2.84272 0.002,8.06824 0.001,8.06876 -0.46922,-0.0196 c -0.25816,-0.0108 -0.85353,-0.0827 -1.32292,-0.15968 -1.35344,-0.22189 -8.41184,-0.96029 -11.77706,-1.23196 -4.67305,-0.37724 -14.65191,-0.92363 -16.94108,-0.92863 l -0.55449,-0.001 v -4.79041 -4.7904 l 0.80357,-0.8537 c 1.67337,-1.77727 16.94595,-17.66623 17.01705,-17.70383 z m -74.569085,0.12816 c 0.162558,0 2.461576,2.34437 10.108944,10.30945 l 3.797184,3.95531 v 6.87245 c 0,6.43324 -0.01908,6.87252 -0.29869,6.87452 -0.612417,0.003 -8.438364,0.51159 -11.649418,0.75654 -3.694146,0.2818 -10.356015,0.95655 -13.191443,1.33635 -1.012415,0.13561 -1.876069,0.2465 -1.919779,0.2465 -0.04371,0 -0.07688,-3.63102 -0.07338,-8.06876 l 0.0067,-8.06824 6.526734,-7.10706 c 3.589802,-3.90889 6.601771,-7.10706 6.693131,-7.10706 z m -4.698421,13.12685 v 2.09031 2.09031 h 1.962671 1.962671 v -2.09031 -2.09031 h -1.962671 z m 4.949568,0 v 2.09031 2.09031 h 1.963188 1.962671 v -2.09031 -2.09031 H 70.59374 Z m 70.152298,0 v 2.09031 2.09031 h 1.96319 1.96267 v -2.09031 -2.09031 h -1.96267 z m 4.95009,0 v 2.09031 2.09031 h 1.96318 1.96267 v -2.09031 -2.09031 h -1.96267 z m -80.051956,5.18418 v 2.00659 2.0066 h 1.962671 1.962671 v -2.0066 -2.00659 h -1.962671 z m 4.949568,0 v 2.00659 2.0066 h 1.963188 1.962671 v -2.0066 -2.00659 H 70.59374 Z m 70.152298,0 v 2.00659 2.0066 h 1.96319 1.96267 v -2.0066 -2.00659 h -1.96267 z m 4.95009,0 v 2.00659 2.0066 h 1.96318 1.96267 v -2.0066 -2.00659 h -1.96267 z m -71.787861,21.73252 v 5.2e-4 c 9.78e-4,0.002 0.0044,0.007 0.01137,0.015 0.0763,0.0884 0.155067,0.17496 0.234094,0.26097 -0.01106,-0.0165 -0.02238,-0.0332 -0.03359,-0.0496 -0.04532,-0.0664 -0.196241,-0.21787 -0.21084,-0.22634 l -5.16e-4,-5.2e-4 z"
       inkscape:export-filename="logo-blanco.svg"
       inkscape:export-xdpi="96"
       inkscape:export-ydpi="96" /><path
       d="m 27.810985,439.32938 h -5.197849 v -0.78813 q 0.844416,-0.0375 1.088358,-0.20641 0.243943,-0.18765 0.281472,-0.76935 v -8.81946 q 0,-0.80689 -0.225177,-0.99453 -0.206413,-0.20642 -1.144653,-0.28148 v -0.78812 h 4.785024 q 2.383129,0 3.6779,0.91948 1.294772,0.91947 1.294772,2.47695 0,1.18218 -0.788122,2.10166 -0.769357,0.91947 -2.420659,1.276 0.619238,0.26271 1.050829,0.71307 0.450355,0.45035 1.032064,1.25724 l 1.050828,1.51995 q 0.619239,0.91947 1.050829,1.25724 0.450355,0.33776 1.088359,0.33776 h 0.09382 v 0.78813 q -0.731828,0.11259 -1.519949,0.11259 -1.313536,0 -1.989069,-0.35654 -0.656768,-0.35653 -1.107123,-1.21971 l -0.863181,-1.55748 q -0.881945,-1.6513 -1.36983,-2.13918 -0.487885,-0.50665 -1.238477,-0.54418 v 3.65913 q 0,0.76936 0.225178,0.99454 0.225177,0.22518 1.144652,0.2627 z m -1.36983,-11.76553 v 5.14155 h 0.412826 q 2.983603,0 2.983603,-2.43942 0,-1.27601 -0.769357,-1.98907 -0.769357,-0.71306 -2.195482,-0.71306 z m 15.04938,-0.90071 h 3.546547 v 0.78812 q -0.713062,0.0751 -1.050828,0.46912 -0.319002,0.37529 -0.806887,1.78265 l -3.546547,9.58882 -0.844416,0.22517 -3.509017,-9.9641 q -0.319002,-0.91948 -0.638003,-1.3886 -0.319002,-0.48788 -0.525415,-0.58171 -0.187648,-0.0938 -0.544179,-0.13135 v -0.78812 h 4.822553 v 0.78812 q -0.919475,0 -0.919475,0.78812 0,0.30024 0.206413,0.957 l 2.270541,6.38004 2.157952,-6.24868 q 0.243942,-0.71306 0.243942,-1.14465 0,-0.41283 -0.225178,-0.56295 -0.206412,-0.15012 -0.638003,-0.16888 z m 10.320644,6.86791 h 5.047731 v 0.78812 q -0.769356,0.0751 -1.013299,0.26271 -0.225177,0.16889 -0.225177,0.73183 v 3.20878 q -1.707597,0.99453 -4.25961,0.99453 -2.964838,0 -4.672435,-1.80142 -1.688832,-1.80142 -1.688832,-4.59737 0,-2.90855 1.838951,-4.76626 1.857715,-1.85772 4.803788,-1.85772 2.251776,0 3.79049,1.18219 l 0.243942,2.83348 -0.750592,0.11259 -0.206413,-0.60047 q -0.394061,-1.14466 -1.238477,-1.78266 -0.844415,-0.65677 -2.007833,-0.65677 -1.83895,0 -2.833485,1.53872 -0.975769,1.51994 -0.975769,3.88431 0,2.45819 1.069593,3.95937 1.069594,1.48242 2.908544,1.48242 0.957005,0 1.538714,-0.26271 v -2.87101 q -0.03753,-0.58171 -0.281472,-0.75059 -0.243943,-0.16889 -1.088359,-0.24395 z m 16.569287,-6.86791 h 3.546547 v 0.78812 q -0.713062,0.0751 -1.050829,0.46912 -0.319001,0.37529 -0.806886,1.78265 l -3.546547,9.58882 -0.844416,0.22517 -3.509018,-9.9641 q -0.319001,-0.91948 -0.638003,-1.3886 -0.319001,-0.48788 -0.525414,-0.58171 -0.187648,-0.0938 -0.544179,-0.13135 v -0.78812 h 4.822553 v 0.78812 q -0.919475,0 -0.919475,0.78812 0,0.30024 0.206413,0.957 l 2.27054,6.38004 2.157952,-6.24868 q 0.243943,-0.71306 0.243943,-1.14465 0,-0.41283 -0.225178,-0.56295 -0.206413,-0.15012 -0.638003,-0.16888 z m 4.147034,0.0188 h 8.725632 l 0.225177,2.9836 -0.769357,0.0938 -0.09382,-0.43159 q -0.225177,-0.97577 -0.544179,-1.27601 -0.319001,-0.30023 -1.163417,-0.33776 h -2.552013 v 4.76625 h 1.519949 q 0.957004,0 1.200947,-0.22517 0.262707,-0.24395 0.337766,-1.23848 h 0.788122 v 3.97814 h -0.788122 q -0.07506,-0.91948 -0.281472,-1.18218 -0.206413,-0.26271 -0.919475,-0.30024 h -1.857715 v 4.78502 h 1.895245 q 1.276006,0 1.707596,-0.28147 0.431591,-0.28147 0.863181,-1.29477 l 0.206413,-0.46912 0.788121,0.11259 -0.581708,2.96484 H 72.5275 v -0.78813 q 0.919475,-0.0375 1.144653,-0.2627 0.225177,-0.22518 0.225177,-0.99454 v -8.53798 q 0,-0.80689 -0.225177,-0.99453 -0.206413,-0.20642 -1.144653,-0.28148 z m 18.370751,0 h 3.903078 v 0.78812 q -0.93824,0.0751 -1.163417,0.28148 -0.206413,0.18764 -0.206413,0.99453 v 10.67717 h -0.881945 l -6.849152,-9.88905 v 7.74986 q 0,0.76936 0.225177,0.99454 0.225178,0.22518 1.144653,0.2627 v 0.78813 h -3.903078 v -0.78813 q 0.919475,-0.0375 1.144653,-0.2627 0.225177,-0.22518 0.225177,-0.99454 v -8.35033 q 0,-0.76936 -0.356531,-1.0696 -0.337766,-0.319 -1.388595,-0.39406 v -0.78812 h 4.034432 l 5.441792,8.06887 v -6.28621 q -0.03753,-0.58171 -0.281472,-0.75059 -0.225178,-0.16889 -1.088359,-0.24395 z m 4.766248,2.9836 0.243942,-2.9836 h 9.063399 l 0.24394,2.9836 -0.76936,0.0938 -0.0938,-0.43159 q -0.22518,-0.97577 -0.54418,-1.27601 -0.319,-0.30023 -1.16342,-0.33776 h -0.97577 v 9.85152 q 0,0.56294 0.26271,0.75059 0.26271,0.18765 1.10712,0.22517 v 0.78813 h -5.197845 v -0.78813 q 0.919476,-0.0375 1.144653,-0.2627 0.225178,-0.22518 0.225178,-0.99454 v -9.57004 h -0.994535 q -0.881945,0.0375 -1.182182,0.319 -0.281472,0.2627 -0.50665,1.276 l -0.09382,0.43159 z m 22.724171,-2.9836 v 0.78812 q -0.93824,0.0751 -1.16341,0.28148 -0.20642,0.18764 -0.20642,0.99453 v 6.17362 q 0,2.15795 -1.21971,3.37766 -1.21971,1.21971 -3.50902,1.21971 -2.38313,0 -3.69666,-1.31353 -1.29477,-1.31354 -1.29477,-3.56531 v -5.89215 q 0,-0.80689 -0.22518,-0.99453 -0.20641,-0.20642 -1.14465,-0.28148 v -0.78812 h 5.19785 v 0.78812 q -0.86318,0.0751 -1.12589,0.26271 -0.24394,0.16888 -0.24394,0.73183 v 6.45509 q 0,1.7076 0.78812,2.55201 0.80688,0.84442 2.25177,0.84442 1.53872,0 2.36437,-0.97577 0.82565,-0.99454 0.82565,-2.43943 v -6.43632 q -0.0375,-0.58171 -0.28147,-0.75059 -0.22518,-0.16889 -1.08836,-0.24395 v -0.78812 z m 6.32373,12.64748 h -5.19785 v -0.78813 q 0.84441,-0.0375 1.08836,-0.20641 0.24394,-0.18765 0.28147,-0.76935 v -8.81946 q 0,-0.80689 -0.22518,-0.99453 -0.20641,-0.20642 -1.14465,-0.28148 v -0.78812 h 4.78502 q 2.38313,0 3.6779,0.91948 1.29477,0.91947 1.29477,2.47695 0,1.18218 -0.78812,2.10166 -0.76935,0.91947 -2.42066,1.276 0.61924,0.26271 1.05083,0.71307 0.45036,0.45035 1.03207,1.25724 l 1.05083,1.51995 q 0.61923,0.91947 1.05082,1.25724 0.45036,0.33776 1.08836,0.33776 h 0.0938 v 0.78813 q -0.73183,0.11259 -1.51995,0.11259 -1.31354,0 -1.98907,-0.35654 -0.65677,-0.35653 -1.10712,-1.21971 l -0.86318,-1.55748 q -0.88195,-1.6513 -1.36984,-2.13918 -0.48788,-0.50665 -1.23847,-0.54418 v 3.65913 q 0,0.76936 0.22518,0.99454 0.22517,0.22518 1.14465,0.2627 z m -1.36983,-11.76553 v 5.14155 h 0.41282 q 2.98361,0 2.98361,-2.43942 0,-1.27601 -0.76936,-1.98907 -0.76936,-0.71306 -2.19548,-0.71306 z m 8.40664,-0.88195 h 8.72563 l 0.22518,2.9836 -0.76936,0.0938 -0.0938,-0.43159 q -0.22517,-0.97577 -0.54417,-1.27601 -0.31901,-0.30023 -1.16342,-0.33776 h -2.55201 v 4.76625 h 1.51994 q 0.95701,0 1.20095,-0.22517 0.26271,-0.24395 0.33777,-1.23848 h 0.78812 v 3.97814 h -0.78812 q -0.0751,-0.91948 -0.28147,-1.18218 -0.20642,-0.26271 -0.91948,-0.30024 h -1.85771 v 4.78502 h 1.89524 q 1.27601,0 1.7076,-0.28147 0.43159,-0.28147 0.86318,-1.29477 l 0.20641,-0.46912 0.78812,0.11259 -0.58171,2.96484 h -8.70686 v -0.78813 q 0.91947,-0.0375 1.14465,-0.2627 0.22518,-0.22518 0.22518,-0.99454 v -8.53798 q 0,-0.80689 -0.22518,-0.99453 -0.20641,-0.20642 -1.14465,-0.28148 z m 14.5052,11.76553 q 0.93824,0 1.44489,-0.54418 0.52542,-0.54418 0.52542,-1.46365 0,-0.84442 -0.60048,-1.40736 -0.58171,-0.56295 -1.42612,-0.91948 -0.82565,-0.35653 -1.67007,-0.76935 -0.82565,-0.41283 -1.42612,-1.20095 -0.58171,-0.80689 -0.58171,-1.98907 0,-1.72636 1.05083,-2.68337 1.06959,-0.97577 2.83348,-0.97577 1.6513,0 2.85225,0.86318 l 0.24394,2.73967 -0.76935,0.0938 -0.18765,-0.56294 q -0.33777,-0.99454 -0.99454,-1.51995 -0.65676,-0.54418 -1.44489,-0.54418 -0.78812,0 -1.25724,0.48788 -0.45035,0.46912 -0.45035,1.29477 0,0.56295 0.319,0.99454 0.33777,0.41282 0.84442,0.6943 0.52541,0.28147 1.14465,0.54417 0.61924,0.24395 1.23847,0.58171 0.63801,0.33777 1.14466,0.76936 0.52541,0.43159 0.84441,1.16342 0.33777,0.73182 0.33777,1.68883 0,1.89524 -1.12589,2.81472 -1.12589,0.91947 -3.15248,0.91947 -2.06413,0 -3.26508,-0.78812 l -0.35653,-2.88978 0.80689,-0.15011 0.16888,0.43159 q 0.91947,2.32683 2.90854,2.32683 z m 14.3363,-11.76553 v 0.78812 q -0.86318,0.0751 -1.12589,0.26271 -0.24394,0.16888 -0.24394,0.73183 v 9.83275 h 1.98907 q 1.29477,0 1.72636,-0.28147 0.45035,-0.28147 0.86318,-1.29477 l 0.18765,-0.46912 0.76935,0.11259 -0.56294,2.96484 h -8.80069 v -0.78813 q 0.91948,-0.0375 1.14465,-0.2627 0.22518,-0.22518 0.22518,-0.99454 v -8.81945 q -0.0375,-0.58171 -0.28147,-0.75059 -0.22518,-0.16889 -1.08836,-0.24395 v -0.78812 z m 10.22682,0 v 0.78812 q -0.86318,0.0751 -1.12589,0.26271 -0.24394,0.16888 -0.24394,0.73183 v 9.83275 h 1.98907 q 1.29477,0 1.72636,-0.28147 0.45036,-0.28147 0.86318,-1.29477 l 0.18765,-0.46912 0.76936,0.11259 -0.56295,2.96484 h -8.80069 v -0.78813 q 0.91948,-0.0375 1.14465,-0.2627 0.22518,-0.22518 0.22518,-0.99454 v -8.81945 q -0.0375,-0.58171 -0.28147,-0.75059 -0.22518,-0.16889 -1.08836,-0.24395 v -0.78812 z m 10.90235,0.88195 q -1.51995,0 -2.45819,1.40736 -0.93824,1.40736 -0.93824,3.75296 0,2.57077 1.14465,4.05319 1.14465,1.48242 2.92731,1.48242 1.82019,0 3.17125,-1.40736 l 0.52542,0.48789 q -1.42613,2.17671 -4.4285,2.17671 -2.62707,0 -4.3159,-1.68883 -1.68883,-1.70759 -1.68883,-4.65367 0,-2.12042 0.91947,-3.65913 0.93824,-1.55748 2.3456,-2.28931 1.42613,-0.73183 3.07743,-0.73183 1.87648,0 3.26508,0.84442 l 0.20641,3.13372 -0.73183,0.0938 -0.20641,-0.58171 q -0.82565,-2.42066 -2.81472,-2.42066 z"
       id="text1"
       style="font-weight:900;font-size:18.7648px;font-family:'Senlot Serif';-inkscape-font-specification:'Senlot Serif Heavy';fill:#ffffff;stroke-width:0.703679"
       aria-label="RVG VENTURES LLC" /></g></svg>
