<svg xmlns="http://www.w3.org/2000/svg" xml:space="preserve" width="560.203" height="358.42" viewBox="0 0 148.22 94.832"><g transform="matrix(1.81643 0 0 1.81643 -71.328 -110.828)"><rect width="22.135" height="3.849" x="-6.904" y="116.887" ry="1.572" style="fill:#eead5f;fill-opacity:1;stroke-width:.412268" transform="matrix(.85433 -.51973 .57309 .8195 0 0)"/><rect width="22.135" height="3.849" x="-138.288" y="33.563" ry="1.572" style="fill:#eead5f;fill-opacity:1;stroke-width:.412268" transform="matrix(-.85433 -.51973 -.57309 .8195 0 0)"/><rect width="3.765" height="26.479" x="61.366" y="75.474" ry="1.395" style="fill:#7abbb7;fill-opacity:1;stroke-width:.264583"/><rect width="30.95" height="3.935" x="-2.81" y="97.364" ry="1.968" style="fill:#7ca953;fill-opacity:1;stroke-width:.298124" transform="matrix(.7746 -.63245 .5985 .80113 0 0)"/><rect width="30.95" height="3.935" x="-131.219" y="-4.01" ry="1.968" style="fill:#7ca953;fill-opacity:1;stroke-width:.298124" transform="matrix(-.7746 -.63245 -.5985 .80113 0 0)"/><path d="M94.866 81.848v19.158c0 .525.622.947 1.394.947h.976c.773 0 1.395-.422 1.395-.947V84.931Z" style="fill:#7abbb7;fill-opacity:1;stroke-width:.217955"/><path d="m76.404 74.517 3.184-.009-.013 3.878H75.85l-.013-3.302a.565.565 0 0 1 .567-.567zM75.79 82.695l-.01-3.185 3.878.014v3.725l-3.302.013a.565.565 0 0 1-.567-.567zM84.18 74.517l-3.184-.009.013 3.878h3.725l.013-3.302a.565.565 0 0 0-.567-.567zM84.795 82.695l.008-3.185-3.877.014v3.725l3.302.013a.565.565 0 0 0 .567-.567z" style="fill:#16201f;fill-opacity:1;stroke-width:.241575"/></g><path d="M34.79 192.501h-3.9v-.591q.633-.028.816-.155.183-.14.212-.577v-6.617q0-.605-.17-.746-.154-.155-.858-.211v-.591h3.59q1.787 0 2.759.69.971.69.971 1.858 0 .887-.591 1.576-.577.69-1.816.958.464.197.788.535.338.338.775.943l.788 1.14q.464.69.788.943.338.254.817.254h.07v.591q-.549.085-1.14.085-.986 0-1.492-.268-.493-.267-.831-.915l-.648-1.168q-.661-1.24-1.027-1.605-.366-.38-.93-.409v2.746q0 .577.17.746.169.169.858.197zm-1.028-8.827v3.858h.31q2.238 0 2.238-1.83 0-.958-.577-1.493-.578-.535-1.648-.535zM46.757 183h2.66v.591q-.534.056-.788.352-.239.281-.605 1.337l-2.66 7.194-.634.169-2.633-7.475q-.239-.69-.478-1.042-.24-.366-.394-.437-.141-.07-.409-.098v-.591h3.618v.591q-.69 0-.69.591 0 .225.155.718l1.704 4.787 1.619-4.688q.183-.535.183-.859 0-.31-.17-.422-.154-.113-.478-.127zm9.448 5.152h3.787v.591q-.578.057-.76.197-.17.127-.17.55v2.407q-1.28.746-3.195.746-2.224 0-3.505-1.352-1.267-1.351-1.267-3.449 0-2.182 1.38-3.575 1.393-1.394 3.603-1.394 1.69 0 2.844.887l.183 2.126-.563.084-.155-.45q-.296-.86-.93-1.338-.633-.492-1.506-.492-1.38 0-2.125 1.154-.732 1.14-.732 2.914 0 1.844.802 2.97.802 1.112 2.182 1.112.718 0 1.154-.197v-2.154q-.028-.436-.21-.563-.184-.126-.817-.183zM72.045 183h2.661v.591q-.535.056-.788.352-.24.281-.606 1.337l-2.66 7.194-.634.169-2.632-7.475q-.24-.69-.479-1.042-.24-.366-.394-.437-.14-.07-.408-.098v-.591h3.618v.591q-.69 0-.69.591 0 .225.155.718l1.703 4.787 1.619-4.688q.183-.535.183-.859 0-.31-.169-.422-.155-.113-.479-.127zm4.817.014h6.546l.169 2.238-.577.07-.07-.323q-.17-.732-.41-.958-.238-.225-.872-.253h-1.914v3.576h1.14q.718 0 .9-.17.198-.182.254-.928h.591v2.984h-.59q-.057-.69-.212-.887-.155-.197-.69-.225h-1.393v3.59h1.421q.958 0 1.281-.211.324-.212.648-.972l.155-.352.591.085-.436 2.224h-6.532v-.591q.69-.028.858-.197.17-.17.17-.746v-6.406q0-.605-.17-.746-.154-.155-.858-.21zm15.487 0h2.928v.591q-.704.056-.873.211-.155.141-.155.746v8.01h-.661l-5.139-7.418v5.814q0 .577.17.746.168.169.858.197v.591h-2.928v-.591q.69-.028.859-.197.168-.17.168-.746v-6.265q0-.577-.267-.802-.253-.24-1.042-.296v-.591h3.027l4.082 6.053v-4.716q-.028-.436-.21-.563-.17-.127-.817-.183zm5.28 2.238.184-2.238h6.799l.183 2.238-.577.07-.07-.323q-.17-.732-.409-.958-.24-.225-.873-.253h-.732v7.39q0 .423.197.564.198.14.831.169v.591h-3.9v-.591q.69-.028.86-.197.168-.17.168-.746v-7.18h-.746q-.662.028-.887.24-.211.196-.38.957l-.07.323zm18.754-2.238v.591q-.704.056-.873.211-.155.141-.155.746v4.632q0 1.619-.915 2.534-.915.915-2.633.915-1.787 0-2.773-.986-.971-.985-.971-2.674v-4.42q0-.606-.17-.747-.154-.155-.858-.21v-.592h3.9v.591q-.648.056-.845.197-.183.127-.183.55v4.842q0 1.28.591 1.914.605.634 1.69.634 1.154 0 1.773-.732.62-.746.62-1.83v-4.829q-.028-.436-.212-.563-.168-.127-.816-.183v-.591zm6.449 9.488h-3.9v-.591q.634-.028.817-.155.183-.14.211-.577v-6.617q0-.605-.169-.746-.155-.155-.859-.21v-.592h3.59q1.788 0 2.76.69.97.69.97 1.858 0 .887-.59 1.576-.578.69-1.817.958.465.197.789.535.338.338.774.943l.788 1.14q.465.69.789.943.338.254.816.254h.07v.591q-.548.085-1.14.085-.985 0-1.492-.268-.493-.267-.83-.915l-.648-1.168q-.662-1.24-1.028-1.605-.366-.38-.929-.408v2.745q0 .577.17.746.168.169.858.197zm-1.028-8.827v3.858h.31q2.238 0 2.238-1.83 0-.958-.577-1.493-.577-.535-1.647-.535zm8.012-.661h6.546l.169 2.238-.577.07-.07-.323q-.17-.732-.409-.958-.24-.225-.873-.253h-1.914v3.576h1.14q.718 0 .901-.17.197-.182.253-.928h.592v2.984h-.592q-.056-.69-.21-.887-.156-.197-.69-.225h-1.394v3.59h1.422q.957 0 1.28-.211.324-.212.648-.972l.155-.352.591.085-.436 2.224h-6.532v-.591q.69-.028.859-.197.169-.17.169-.746v-6.406q0-.605-.17-.746-.154-.155-.858-.21zm12.587 8.826q.704 0 1.084-.408.394-.408.394-1.098 0-.633-.45-1.056-.437-.422-1.07-.69-.62-.267-1.253-.577-.62-.31-1.07-.9-.436-.606-.436-1.493 0-1.295.788-2.013.802-.732 2.126-.732 1.239 0 2.14.648l.182 2.055-.577.07-.14-.422q-.254-.746-.747-1.14-.492-.409-1.084-.409-.59 0-.943.366-.338.352-.338.972 0 .422.24.746.253.31.633.52.394.212.859.409.464.183.929.436.479.254.859.578.394.323.633.872.254.55.254 1.267 0 1.422-.845 2.112-.845.69-2.365.69-1.549 0-2.45-.591l-.267-2.168.605-.113.127.324q.69 1.745 2.182 1.745zm14.166-8.826v.591q-.648.056-.845.197-.183.127-.183.55v7.376h1.492q.971 0 1.295-.211.338-.212.648-.972l.14-.352.578.085-.423 2.224h-6.602v-.591q.69-.028.859-.197.169-.17.169-.746v-6.617q-.028-.436-.211-.563-.17-.127-.817-.183v-.591zm9.377 0v.591q-.648.056-.845.197-.183.127-.183.55v7.376h1.492q.972 0 1.296-.211.337-.212.647-.972l.141-.352.577.085-.422 2.224h-6.603v-.591q.69-.028.86-.197.168-.17.168-.746v-6.617q-.028-.436-.211-.563-.169-.127-.817-.183v-.591zm9.884.661q-1.14 0-1.844 1.056-.704 1.056-.704 2.816 0 1.928.859 3.04.859 1.113 2.196 1.113 1.365 0 2.379-1.056l.394.366q-1.07 1.633-3.322 1.633-1.971 0-3.238-1.267-1.267-1.281-1.267-3.491 0-1.591.69-2.746.704-1.168 1.76-1.717 1.07-.549 2.308-.549 1.408 0 2.45.634l.155 2.35-.55.07-.154-.436q-.62-1.816-2.112-1.816z" aria-label="RVG VENTURES LLC" style="font-weight:900;font-size:14.0775px;font-family:&quot;Senlot Serif&quot;;-inkscape-font-specification:&quot;Senlot Serif Heavy&quot;;text-align:center;letter-spacing:1.70514px;word-spacing:0;text-anchor:middle;stroke-width:.527907" transform="translate(-30.89 -97.81)"/></svg>